<svg width="106" height="61" viewBox="0 0 106 61" fill="none" xmlns="http://www.w3.org/2000/svg">
<g clip-path="url(#clip0_1149_549)">
<path d="M17.1855 39.0371L17.6641 44.8887H17.1855C16.7025 43.4303 16.0781 42.332 15.3125 41.5938C14.2096 40.5273 12.7923 39.9941 11.0605 39.9941C8.69987 39.9941 6.9043 40.9284 5.67383 42.7969C4.64388 44.3737 4.12891 46.2513 4.12891 48.4297C4.12891 50.1979 4.4707 51.8112 5.1543 53.2695C5.83789 54.7279 6.73112 55.7988 7.83398 56.4824C8.94596 57.1569 10.0853 57.4941 11.252 57.4941C11.9355 57.4941 12.5964 57.4076 13.2344 57.2344C13.8724 57.0612 14.4876 56.806 15.0801 56.4688V51.1094C15.0801 50.1797 15.0072 49.5736 14.8613 49.291C14.7246 48.9993 14.5059 48.7806 14.2051 48.6348C13.9134 48.4798 13.3939 48.4023 12.6465 48.4023V47.8828H19.8242V48.4023H19.4824C18.7715 48.4023 18.2839 48.6393 18.0195 49.1133C17.8372 49.4505 17.7461 50.1159 17.7461 51.1094V56.7832C16.6979 57.3483 15.6634 57.763 14.6426 58.0273C13.6217 58.2917 12.487 58.4238 11.2383 58.4238C7.65625 58.4238 4.93555 57.2754 3.07617 54.9785C1.68164 53.2559 0.984375 51.2689 0.984375 49.0176C0.984375 47.3861 1.3763 45.8229 2.16016 44.3281C3.08984 42.5508 4.36589 41.1836 5.98828 40.2266C7.34635 39.4336 8.95052 39.0371 10.8008 39.0371C11.4753 39.0371 12.0859 39.0918 12.6328 39.2012C13.1888 39.3105 13.9727 39.5521 14.9844 39.9258C15.4948 40.1172 15.8366 40.2129 16.0098 40.2129C16.1829 40.2129 16.3288 40.1354 16.4473 39.9805C16.5749 39.8164 16.6523 39.502 16.6797 39.0371H17.1855ZM39.1562 58H34.207L27.9316 49.332C27.4668 49.3503 27.0885 49.3594 26.7969 49.3594C26.6784 49.3594 26.5508 49.3594 26.4141 49.3594C26.2773 49.3503 26.1361 49.3411 25.9902 49.332V54.7188C25.9902 55.8854 26.1178 56.61 26.373 56.8926C26.7194 57.2936 27.2389 57.4941 27.9316 57.4941H28.6562V58H20.7129V57.4941H21.4102C22.194 57.4941 22.7546 57.2389 23.0918 56.7285C23.2832 56.446 23.3789 55.776 23.3789 54.7188V42.7422C23.3789 41.5755 23.2513 40.8509 22.9961 40.5684C22.6406 40.1673 22.112 39.9668 21.4102 39.9668H20.7129V39.4609H27.4668C29.4355 39.4609 30.8848 39.6068 31.8145 39.8984C32.7533 40.181 33.5462 40.7096 34.1934 41.4844C34.8496 42.25 35.1777 43.166 35.1777 44.2324C35.1777 45.3717 34.804 46.3607 34.0566 47.1992C33.3184 48.0378 32.1699 48.6302 30.6113 48.9766L34.4395 54.2949C35.3145 55.5163 36.0664 56.3275 36.6953 56.7285C37.3242 57.1296 38.1445 57.3848 39.1562 57.4941V58ZM25.9902 48.4707C26.1634 48.4707 26.3138 48.4753 26.4414 48.4844C26.569 48.4844 26.6738 48.4844 26.7559 48.4844C28.5241 48.4844 29.8548 48.1016 30.748 47.3359C31.6504 46.5703 32.1016 45.5951 32.1016 44.4102C32.1016 43.2526 31.737 42.3138 31.0078 41.5938C30.2878 40.8646 29.3307 40.5 28.1367 40.5C27.6081 40.5 26.8926 40.5866 25.9902 40.7598V48.4707ZM51.7207 51.793H44.543L43.2852 54.7188C42.9753 55.4388 42.8203 55.9766 42.8203 56.332C42.8203 56.6146 42.9525 56.8652 43.2168 57.084C43.4902 57.2936 44.0736 57.4303 44.9668 57.4941V58H39.1289V57.4941C39.9036 57.3574 40.4049 57.1797 40.6328 56.9609C41.0977 56.5234 41.6126 55.6348 42.1777 54.2949L48.6992 39.0371H49.1777L55.6309 54.459C56.1504 55.6986 56.6198 56.5052 57.0391 56.8789C57.4674 57.2435 58.0599 57.4486 58.8164 57.4941V58H51.502V57.4941C52.2402 57.4577 52.737 57.3346 52.9922 57.125C53.2565 56.9154 53.3887 56.6602 53.3887 56.3594C53.3887 55.9583 53.2064 55.3249 52.8418 54.459L51.7207 51.793ZM51.3379 50.7812L48.1934 43.2891L44.9668 50.7812H51.3379ZM58.7754 39.4609H63.8066L75.1406 53.3652V42.6738C75.1406 41.5345 75.013 40.8236 74.7578 40.541C74.4206 40.1582 73.8874 39.9668 73.1582 39.9668H72.5156V39.4609H78.9688V39.9668H78.3125C77.5286 39.9668 76.9727 40.2038 76.6445 40.6777C76.444 40.9694 76.3438 41.6348 76.3438 42.6738V58.3008H75.8516L63.6289 43.3711V54.7871C63.6289 55.9264 63.752 56.6374 63.998 56.9199C64.3444 57.3027 64.8776 57.4941 65.5977 57.4941H66.2539V58H59.8008V57.4941H60.4434C61.2363 57.4941 61.7969 57.2572 62.125 56.7832C62.3255 56.4915 62.4258 55.8262 62.4258 54.7871V41.8945C61.888 41.2656 61.4779 40.8509 61.1953 40.6504C60.9219 40.4499 60.5163 40.263 59.9785 40.0898C59.7142 40.0078 59.3132 39.9668 58.7754 39.9668V39.4609ZM88.0195 57.4941V58H80.0762V57.4941H80.7324C81.498 57.4941 82.054 57.2708 82.4004 56.8242C82.6191 56.5326 82.7285 55.8307 82.7285 54.7188V42.7422C82.7285 41.8034 82.6693 41.1836 82.5508 40.8828C82.4596 40.6549 82.2728 40.459 81.9902 40.2949C81.5892 40.0762 81.1699 39.9668 80.7324 39.9668H80.0762V39.4609H88.0195V39.9668H87.3496C86.5931 39.9668 86.0417 40.1901 85.6953 40.6367C85.4674 40.9284 85.3535 41.6302 85.3535 42.7422V54.7188C85.3535 55.6576 85.4128 56.2773 85.5312 56.5781C85.6224 56.806 85.8138 57.002 86.1055 57.166C86.4974 57.3848 86.9121 57.4941 87.3496 57.4941H88.0195ZM104.904 39.4609L105.109 43.8086H104.59C104.49 43.043 104.353 42.4961 104.18 42.168C103.897 41.6393 103.519 41.252 103.045 41.0059C102.58 40.7507 101.965 40.623 101.199 40.623H98.5879V54.7871C98.5879 55.9264 98.7109 56.6374 98.957 56.9199C99.3034 57.3027 99.8366 57.4941 100.557 57.4941H101.199V58H93.3379V57.4941H93.9941C94.778 57.4941 95.334 57.2572 95.6621 56.7832C95.8626 56.4915 95.9629 55.8262 95.9629 54.7871V40.623H93.7344C92.8685 40.623 92.2533 40.6868 91.8887 40.8145C91.4147 40.9876 91.0091 41.3203 90.6719 41.8125C90.3346 42.3047 90.1341 42.9701 90.0703 43.8086H89.5508L89.7695 39.4609H104.904Z" fill="white"/>
<path d="M12.8105 13.793H5.63281L4.375 16.7188C4.0651 17.4388 3.91016 17.9766 3.91016 18.332C3.91016 18.6146 4.04232 18.8652 4.30664 19.084C4.58008 19.2936 5.16341 19.4303 6.05664 19.4941V20H0.21875V19.4941C0.99349 19.3574 1.49479 19.1797 1.72266 18.9609C2.1875 18.5234 2.70247 17.6348 3.26758 16.2949L9.78906 1.03711H10.2676L16.7207 16.459C17.2402 17.6986 17.7096 18.5052 18.1289 18.8789C18.5573 19.2435 19.1497 19.4486 19.9062 19.4941V20H12.5918V19.4941C13.3301 19.4577 13.8268 19.3346 14.082 19.125C14.3464 18.9154 14.4785 18.6602 14.4785 18.3594C14.4785 17.9583 14.2962 17.3249 13.9316 16.459L12.8105 13.793ZM12.4277 12.7812L9.2832 5.28906L6.05664 12.7812H12.4277ZM36.2852 14.873L36.7363 14.9688L35.1504 20H20.7949V19.4941H21.4922C22.276 19.4941 22.8366 19.2389 23.1738 18.7285C23.3652 18.4368 23.4609 17.7624 23.4609 16.7051V4.74219C23.4609 3.58464 23.3333 2.86003 23.0781 2.56836C22.7227 2.16732 22.194 1.9668 21.4922 1.9668H20.7949V1.46094H29.1895V1.9668C28.2051 1.95768 27.5124 2.04883 27.1113 2.24023C26.7194 2.43164 26.4505 2.67318 26.3047 2.96484C26.1589 3.25651 26.0859 3.95378 26.0859 5.05664V16.7051C26.0859 17.4616 26.1589 17.9811 26.3047 18.2637C26.4141 18.4551 26.5827 18.5964 26.8105 18.6875C27.0384 18.7786 27.7493 18.8242 28.9434 18.8242H30.2969C31.7188 18.8242 32.7168 18.7194 33.291 18.5098C33.8652 18.3001 34.3893 17.931 34.8633 17.4023C35.3372 16.8646 35.8112 16.0215 36.2852 14.873ZM43.2031 2.47266V9.80078H47.2773C48.3346 9.80078 49.041 9.64128 49.3965 9.32227C49.8704 8.90299 50.1348 8.16471 50.1895 7.10742H50.6953V13.5605H50.1895C50.0618 12.6582 49.9342 12.0794 49.8066 11.8242C49.6426 11.5052 49.3737 11.2546 49 11.0723C48.6263 10.89 48.0521 10.7988 47.2773 10.7988H43.2031V16.9102C43.2031 17.7305 43.2396 18.2318 43.3125 18.4141C43.3854 18.5872 43.513 18.7285 43.6953 18.8379C43.8776 18.9382 44.224 18.9883 44.7344 18.9883H47.8789C48.9271 18.9883 49.6882 18.9154 50.1621 18.7695C50.6361 18.6237 51.0918 18.3366 51.5293 17.9082C52.0944 17.3431 52.6732 16.4909 53.2656 15.3516H53.8125L52.2129 20H37.9258V19.4941H38.582C39.0195 19.4941 39.4342 19.3893 39.8262 19.1797C40.1178 19.0339 40.3138 18.8151 40.4141 18.5234C40.5234 18.2318 40.5781 17.6348 40.5781 16.7324V4.6875C40.5781 3.51172 40.4596 2.78711 40.2227 2.51367C39.8945 2.14909 39.3477 1.9668 38.582 1.9668H37.9258V1.46094H52.2129L52.418 5.52148H51.8848C51.6934 4.54622 51.4792 3.8763 51.2422 3.51172C51.0143 3.14714 50.6725 2.86914 50.2168 2.67773C49.8522 2.54102 49.2096 2.47266 48.2891 2.47266H43.2031ZM65.8984 9.73242L69.877 15.666C70.9798 17.3066 71.7956 18.3457 72.3242 18.7832C72.862 19.2116 73.541 19.4486 74.3613 19.4941V20H66.4043V19.4941C66.9329 19.485 67.3249 19.4303 67.5801 19.3301C67.7715 19.248 67.9264 19.125 68.0449 18.9609C68.1725 18.7878 68.2363 18.6146 68.2363 18.4414C68.2363 18.2318 68.1953 18.0221 68.1133 17.8125C68.0495 17.6576 67.7988 17.2565 67.3613 16.6094L64.2168 11.8516L60.334 16.8281C59.9238 17.3568 59.6777 17.7122 59.5957 17.8945C59.5137 18.0677 59.4727 18.25 59.4727 18.4414C59.4727 18.7331 59.5957 18.9746 59.8418 19.166C60.0879 19.3574 60.5573 19.4668 61.25 19.4941V20H54.6738V19.4941C55.1387 19.4486 55.5397 19.3529 55.877 19.207C56.4421 18.9701 56.9798 18.651 57.4902 18.25C58.0007 17.849 58.584 17.2337 59.2402 16.4043L63.6152 10.8809L59.9648 5.53516C58.9714 4.08594 58.1283 3.13802 57.4355 2.69141C56.7428 2.23568 55.9453 1.99414 55.043 1.9668V1.46094H63.6152V1.9668C62.8861 1.99414 62.3848 2.11263 62.1113 2.32227C61.847 2.5319 61.7148 2.76432 61.7148 3.01953C61.7148 3.35677 61.9336 3.84896 62.3711 4.49609L65.2148 8.74805L68.5098 4.57812C68.8926 4.08594 69.125 3.7487 69.207 3.56641C69.2982 3.38411 69.3438 3.19727 69.3438 3.00586C69.3438 2.81445 69.2891 2.64583 69.1797 2.5C69.043 2.30859 68.8698 2.17643 68.6602 2.10352C68.4505 2.02148 68.0176 1.97591 67.3613 1.9668V1.46094H73.9375V1.9668C73.418 1.99414 72.9941 2.07617 72.666 2.21289C72.1738 2.42253 71.7227 2.70508 71.3125 3.06055C70.9023 3.41602 70.3236 4.07227 69.5762 5.0293L65.8984 9.73242Z" fill="white"/>
</g>
<defs>
<clipPath id="clip0_1149_549">
<rect width="106" height="61" fill="white"/>
</clipPath>
</defs>
</svg>
